HIERARCHY
ROOT Hips
{
	OFFSET 0.00000 0.00000 0.00000
	CHANNELS 6 Xposition Yposition Zposition Zrotation Yrotation Xrotation 
	JOINT LHipJoint
	{
		OFFSET 0 0 0
		CHANNELS 3 Zrotation Yrotation Xrotation
		JOINT LeftUpLeg
		{
			OFFSET 1.58161 -1.81893 0.78828
			CHANNELS 3 Zrotation Yrotation Xrotation
			JOINT LeftLeg
			{
				OFFSET 2.53374 -6.96141 0.00000
				CHANNELS 3 Zrotation Yrotation Xrotation
				JOINT LeftFoot
				{
					OFFSET 2.63509 -7.23986 0.00000
					CHANNELS 3 Zrotation Yrotation Xrotation
					JOINT LeftToeBase
					{
						OFFSET 0.14115 -0.38781 2.05350
						CHANNELS 3 Zrotation Yrotation Xrotation
						End Site
						{
							OFFSET 0.00000 -0.00000 1.05543
						}
					}
				}
			}
		}
	}
	JOINT RHipJoint
	{
		OFFSET 0 0 0
		CHANNELS 3 Zrotation Yrotation Xrotation
		JOINT RightUpLeg
		{
			OFFSET -1.11138 -1.81893 0.78828
			CHANNELS 3 Zrotation Yrotation Xrotation
			JOINT RightLeg
			{
				OFFSET -2.58392 -7.09926 0.00000
				CHANNELS 3 Zrotation Yrotation Xrotation
				JOINT RightFoot
				{
					OFFSET -2.66423 -7.31992 0.00000
					CHANNELS 3 Zrotation Yrotation Xrotation
					JOINT RightToeBase
					{
						OFFSET -0.18831 -0.51739 2.12114
						CHANNELS 3 Zrotation Yrotation Xrotation
						End Site
						{
							OFFSET -0.00000 -0.00000 1.09845
						}
					}
				}
			}
		}
	}
	JOINT LowerBack
	{
		OFFSET 0 0 0
		CHANNELS 3 Zrotation Yrotation Xrotation
		JOINT Spine
		{
			OFFSET -0.01511 1.97958 -0.08829
			CHANNELS 3 Zrotation Yrotation Xrotation
			JOINT Spine1
			{
				OFFSET 0.08344 1.97334 -0.04330
				CHANNELS 3 Zrotation Yrotation Xrotation
				JOINT Neck
				{
					OFFSET 0 0 0
					CHANNELS 3 Zrotation Yrotation Xrotation
					JOINT Neck1
					{
						OFFSET 0.00559 1.76246 0.31246
						CHANNELS 3 Zrotation Yrotation Xrotation
						JOINT Head
						{
							OFFSET -0.07011 1.80354 -0.30524
							CHANNELS 3 Zrotation Yrotation Xrotation
							End Site
							{
								OFFSET -0.02385 1.83547 -0.13906
							}
						}
					}
				}
				JOINT LeftShoulder
				{
					OFFSET 0 0 0
					CHANNELS 3 Zrotation Yrotation Xrotation
					JOINT LeftArm
					{
						OFFSET 3.20667 1.30156 -0.60240
						CHANNELS 3 Zrotation Yrotation Xrotation
						JOINT LeftForeArm
						{
							OFFSET 4.95663 -0.00000 0.00000
							CHANNELS 3 Zrotation Yrotation Xrotation
							JOINT LeftHand
							{
								OFFSET 3.38177 -0.00000 0.00000
								CHANNELS 3 Zrotation Yrotation Xrotation
								JOINT LeftFingerBase
								{
									OFFSET 0 0 0
									CHANNELS 3 Zrotation Yrotation Xrotation
									JOINT LeftHandIndex1
									{
										OFFSET 0.66291 -0.00000 0.00000
										CHANNELS 3 Zrotation Yrotation Xrotation
										End Site
										{
											OFFSET 0.53445 -0.00000 0.00000
										}
									}
								}
								JOINT LThumb
								{
									OFFSET 0 0 0
									CHANNELS 3 Zrotation Yrotation Xrotation
									End Site
									{
										OFFSET 0.54261 -0.00000 0.54261
									}
								}
							}
						}
					}
				}
				JOINT RightShoulder
				{
					OFFSET 0 0 0
					CHANNELS 3 Zrotation Yrotation Xrotation
					JOINT RightArm
					{
						OFFSET -3.06877 1.34672 -0.60964
						CHANNELS 3 Zrotation Yrotation Xrotation
						JOINT RightForeArm
						{
							OFFSET -5.08365 -0.00000 0.00000
							CHANNELS 3 Zrotation Yrotation Xrotation
							JOINT RightHand
							{
								OFFSET -3.35984 -0.00000 0.00000
								CHANNELS 3 Zrotation Yrotation Xrotation
								JOINT RightFingerBase
								{
									OFFSET 0 0 0
									CHANNELS 3 Zrotation Yrotation Xrotation
									JOINT RightHandIndex1
									{
										OFFSET -0.82076 -0.00000 0.00000
										CHANNELS 3 Zrotation Yrotation Xrotation
										End Site
										{
											OFFSET -0.66172 -0.00000 0.00000
										}
									}
								}
								JOINT RThumb
								{
									OFFSET 0 0 0
									CHANNELS 3 Zrotation Yrotation Xrotation
									End Site
									{
										OFFSET -0.67182 -0.00000 0.67182
									}
								}
							}
						}
					}
				}
			}
		}
	}
}
MOTION
Frames: 6
Frame Time: .0083333
-7.2867 17.7055 5.4389 -7.6328 30.4092 1.5088 0.0000 0.0000 0.0000 7.7392 16.8318 -4.2376 4.2074 12.4314 37.2757 0.3303 17.5435 15.2542 2.0638 -8.9978 -25.7884 0.0000 0.0000 0.0000 26.7773 26.0979 -19.3968 -3.2698 -11.1195 32.6839 3.1939 29.7728 13.8916 -4.7119 -13.0518 39.5628 -18.7287 -10.2818 2.3206 -5.2202 -14.1578 -1.7265 4.4190 -6.7733 -0.1038 1.0804 23.1195 -4.4999 -13.2991 33.0041 10.3053 -1.4538 15.2365 6.3255 -0.0000 -0.0000 0.0000 162.5621 -42.0621 -172.7030 22.4117 -33.4392 -6.8113 -0.0000 0.0000 -4.2918 21.3399 -1.5174 -0.5927 -7.1250 0.0000 -0.0000 7.5289 -61.6136 176.9461 -0.0000 -0.0000 0.0000 23.7138 43.3884 -30.9642 -124.1897 55.0860 -89.1206 0.0000 0.0000 3.8196 -67.4092 11.7629 -26.1035 7.1250 -0.0000 -0.0000 -24.9801 -3.5784 -26.0304
-7.2884 17.7077 5.4393 -7.4643 30.3364 1.6409 0.0000 0.0000 0.0000 7.6518 16.8748 -4.3088 4.2242 12.4530 37.3538 0.3430 17.3726 15.2639 2.1063 -9.0841 -26.0588 0.0000 0.0000 0.0000 26.6051 26.1947 -19.4173 -3.2614 -11.1067 32.6406 3.1480 29.6021 14.1209 -4.7771 -13.1283 39.8508 -18.8329 -10.2574 2.3740 -5.2530 -14.1431 -1.7420 4.4482 -6.7603 -0.1394 1.1017 23.1232 -4.4440 -13.3930 32.9990 10.1982 -1.4909 15.2398 6.3019 -0.0000 -0.0000 0.0000 162.1814 -41.8765 -172.3305 22.4989 -33.5363 -6.8595 -0.0000 0.0000 -4.1036 21.7088 -1.5782 -0.6282 -7.1250 0.0000 -0.0000 7.0141 -61.6881 177.1438 -0.0000 -0.0000 0.0000 22.9490 43.1385 -31.6405 -124.1836 55.0880 -89.1156 0.0000 0.0000 4.0299 -67.4298 11.5288 -25.6800 7.1250 -0.0000 -0.0000 -25.0652 -4.0160 -25.9180
-7.2899 17.7095 5.4365 -7.3453 30.2529 1.7194 0.0000 0.0000 0.0000 7.6268 16.9915 -4.3645 4.2418 12.4755 37.4354 0.3974 16.9616 15.4934 2.1516 -9.1749 -26.3441 0.0000 0.0000 0.0000 26.4817 26.2614 -19.4204 -3.2544 -11.0960 32.6043 3.1270 29.5287 14.2958 -4.8240 -13.1828 40.0565 -18.8667 -10.2198 2.4922 -5.2946 -14.1259 -1.7516 4.4497 -6.7440 -0.2229 1.1109 23.1601 -4.4082 -13.4371 33.0424 10.1411 -1.5043 15.2638 6.2904 -0.0000 -0.0000 0.0000 161.8299 -41.6560 -172.0195 22.5087 -33.5471 -6.8648 -0.0000 0.0000 -3.9239 21.9026 -1.5452 -0.6211 -7.1250 0.0000 -0.0000 6.7273 -61.6568 177.2661 -0.0000 -0.0000 0.0000 22.3129 42.9382 -32.1765 -124.1622 55.0948 -89.0981 0.0000 0.0000 4.1298 -67.4382 11.2196 -25.0939 7.1250 -0.0000 -0.0000 -25.1694 -4.6139 -25.7433
-7.2909 17.7107 5.4307 -7.3040 30.1768 1.7925 0.0000 0.0000 0.0000 7.6838 17.1974 -4.5001 4.2626 12.5019 37.5315 0.4809 16.3843 15.8898 2.1974 -9.2658 -26.6302 0.0000 0.0000 0.0000 26.4073 26.3108 -19.4796 -3.2480 -11.0861 32.5708 3.1250 29.5360 14.5255 -4.8392 -13.2004 40.1232 -18.8176 -10.1858 2.5814 -5.3200 -14.1018 -1.7400 4.4218 -6.7291 -0.2822 1.0762 23.1826 -4.4744 -13.4691 33.0649 10.0619 -1.5034 15.2738 6.2773 -0.0000 -0.0000 0.0000 161.5334 -41.4371 -171.8536 22.5554 -33.5990 -6.8907 -0.0000 0.0000 -3.8525 21.8654 -1.5060 -0.6043 -7.1250 0.0000 -0.0000 6.7702 -61.6139 177.2555 -0.0000 -0.0000 0.0000 21.7069 42.7506 -32.7328 -124.2050 55.0811 -89.1331 0.0000 0.0000 4.1120 -67.3658 10.9126 -24.4193 7.1250 -0.0000 -0.0000 -25.2345 -5.2781 -25.4779
-7.2919 17.7122 5.4234 -7.3339 30.1683 1.8734 0.0000 0.0000 0.0000 7.7681 17.2974 -4.7049 4.2856 12.5310 37.6373 0.5652 15.7994 16.3081 2.2639 -9.3955 -27.0404 0.0000 0.0000 0.0000 26.3712 26.2845 -19.6234 -3.2405 -11.0746 32.5320 3.1448 29.6249 14.6682 -4.8090 -13.1654 39.9910 -18.7343 -10.1753 2.6415 -5.3043 -14.1023 -1.7397 4.4125 -6.7277 -0.3293 1.0325 23.1926 -4.5282 -13.5022 33.0711 9.9847 -1.5057 15.2766 6.2605 -0.0000 -0.0000 0.0000 161.2478 -41.3396 -171.5642 22.6311 -33.6829 -6.9326 -0.0000 0.0000 -3.7516 22.2194 -1.5009 -0.6130 -7.1250 0.0000 -0.0000 6.2618 -61.6171 177.4620 -0.0000 -0.0000 0.0000 21.1165 42.5819 -33.2824 -124.1744 55.0909 -89.1081 0.0000 0.0000 4.1094 -67.3074 10.7191 -23.9793 7.1250 -0.0000 -0.0000 -25.2700 -5.7081 -25.2943
-7.2945 17.7146 5.4161 -7.3329 30.2096 1.9612 0.0000 0.0000 0.0000 7.8086 17.2907 -4.9081 4.3107 12.5628 37.7531 0.5921 15.5424 16.4141 2.2383 -9.3456 -26.8826 0.0000 0.0000 0.0000 26.2998 26.2480 -19.7473 -3.2305 -11.0592 32.4799 3.1781 29.7571 14.6710 -4.7668 -13.1162 39.8051 -18.7382 -10.1809 2.7261 -5.2763 -14.1325 -1.7520 4.4587 -6.7385 -0.3755 1.0539 23.2267 -4.5858 -13.4640 33.1383 10.1117 -1.4745 15.2978 6.3120 0.0000 0.0000 0.0000 160.9310 -41.3008 -171.1492 22.6600 -33.7150 -6.9487 -0.0000 0.0000 -3.5999 22.6649 -1.4183 -0.5922 -7.1250 0.0000 -0.0000 5.6045 -61.5383 177.7399 0.0000 0.0000 0.0000 20.5866 42.4485 -33.7217 -124.0660 55.1254 -89.0191 0.0000 0.0000 3.9961 -67.3614 10.6768 -23.9524 7.1250 -0.0000 -0.0000 -25.3110 -5.7492 -25.3236
